<?xml version="1.0" standalone="no"?>
<svg version="1.0" xmlns="http://www.w3.org/2000/svg" viewBox="0 0 200 439">
  <metadata>Created by potrace 1.7, written by Peter Selinger 2001-2005</metadata>
  <g transform="translate(-40,40) scale(0.216963,0.216963)" fill="rgb(0,128,0)" stroke="none">
  		<path d="M533.37,106.83l1.94,-3.42l-1.69,-4.34l5.81,-2.78l1.11,5.18l4.05,3.03l-6.26,5.36L533.37,106.83zM531.04,75.59l0.5,4.32l8.27,2.56l8.13,-1.81l4.16,-8.52l-5.5,-5.8l-7.09,-4.26l-2.84,5.09l-4.07,-4.08l-8.66,4.72l3.07,7.48L531.04,75.59zM512.18,102.19l4.2,3.86l-2.54,4.62l6.03,7.64l3.38,-0.48l1.33,-10.51l2.46,-2.49l1.56,-10.09l7.06,-5.66l-9.23,-11.29l-3.54,-5.57l-4.12,0.56l-1.06,5.43l-3.99,0.22l-1.54,-5.56l-7.64,5.69l2.18,11.79L512.18,102.19zM434.57,212.43l-4.65,-0.5l-4.57,3.71l-3.53,-1.96l-4.26,3.75l-4.37,-4.68l-4.25,1.03l-1.89,4.47l5.88,1.57l0.12,1.96l-4.96,1.28l6.1,3.2l-2.76,2.84l7.82,2.01l3.69,0.93l2.42,-1.15l8.09,-4.38l3.65,-5.01l-3.17,-4.6L434.57,212.43zM459.59,277.32l1.51,-2.34l0.92,1.37l-1.02,2.2l0.67,1.32l3.4,0.85l0.04,0.07l1.88,2.95l-0.41,2.74l0,0l-4.17,-0.42l-0.53,3.06l1.54,2.48l-2.93,1.41l0.79,1.8l4.38,0.75l0.02,0l-2.51,0.97l-4.11,4.64l1.49,0.87l1.97,-1.67l2.59,0.5l1.85,-2.06l1.31,0.87l4.77,-1.21l3.75,0.04l2.52,-2.33l-1.12,-2.33l1.43,-1.33l0.34,-2.93l-3.4,-0.88l-0.8,-1.84l-1.73,-5.41l-1.92,-0.77l-2.5,-5.79l-0.22,-0.52l-2.9,-0.32l2.52,-4.53l0.73,-4.22l-3.07,-0.03l-2.86,0.72l3,-5.73l-3.38,0.45l-2.24,-0.42l-2.18,4.31l-1.02,5.36l1.42,2.59L459.59,277.32zM605.64,69.03l3.04,3.88l3.28,-2.69l0.39,-2.72l2.52,-1.27l3.76,-2.23l1.08,-2.62l-4.16,-3.85l-2.64,2.9l-1.61,4.12l-0.57,-4.65l-4.26,0.21L601,63.25l6.24,0.52L605.64,69.03zM622.39,166.28l-2.87,1.96l0.41,4.83l5.08,2.35l0.74,3.82l9.16,1.1l1.66,-0.74l-5.36,-7.11l-0.57,-7.52l4.39,-9.14l4.18,-9.82l8.71,-10.17l8.56,-5.34l9.93,-5.74l1.88,-3.71l-1.95,-4.83l-5.46,1.6l-4.8,4.49l-9.33,2.22l-9.26,7.41l-6.27,5.85l0.76,4.87l-6.71,9.03l2.58,1.22l-5.56,8.27L622.39,166.28zM516.64,348.19l-2.86,0.39l-3.28,-0.32l-0.39,1.82l3.91,1.79l1.43,0.38l2.14,1.31l0.59,-1.79l-0.42,-1.09l1.01,-2.78L516.64,348.19zM569.65,357.85l-2.02,-0.05l-0.41,0.82l-0.2,0.02l-1.33,0.13l0.66,1.37l1.37,0.44l2.87,-1.38l-0.09,-0.27l-0.2,-0.64l1.89,-1.46L569.65,357.85zM547.51,357.92l-2.09,-0.24l-2.18,0.2l-1.53,-1.16l-0.52,1.46l3.42,0.67l-0.03,0.56l4.04,-0.29l0.35,-1.01l-1.53,0.41L547.51,357.92zM451.25,294.45l4.97,-2.68l2.12,-4.12l-0.46,-3.36l1.5,-3.29l-3.01,-3.01l-2.35,0.2l-2.12,2.27l-3.81,3.75l1.46,4.77l-2.27,4.78L451.25,294.45zM657.19,191.76l-3.88,-2.49l-8.28,-2.44l-1.46,2.66l2.94,4.58l-3.19,5.09l-3.2,-4.62l-4.16,3.19l-5.25,0.21l-2.01,2.58l-3.48,-0.78l2.76,-4.64l-2.11,-0.38l-9.79,6.54l-5.86,3.52l-0.69,4.61l-4.33,1.54L603,208.5l-0.02,-4.04l3.55,-0.91l-1.6,-4.18l-7.84,-2.44l2.06,4.69l-1.37,4.41l2.34,4.28l-1.63,4.81l-2.62,-2.43l-2.59,-0.4l-6.53,6.74l1.89,4.88l-2.36,1.59l-6.78,-4.1l-1.78,2.51l1.69,2.8l-0.36,3.11l-2.19,-1.66l-3.61,-1.97l-0.18,-6.75l-0.18,-3.15l-4.57,-5.1l2.06,-0.9l12.52,5.31l4.58,-1.85l3.11,-3.69l-0.19,-4.8l-2.15,-3.51l-10.59,-8.65l-7.68,-1.88l-4.61,-4.86l-2.89,2.81l-3.07,-5.11l3.61,-2.23l-8.77,-6.24l-5.03,1.72l-5.11,-0.38l-4.27,6.99l-4.61,-0.44l-6.15,3.59l-7.71,9.89l-4.7,5.67l-6.74,13.76l-5.13,9.3l-5.54,6.59l-7.4,5.18l-2.58,3.88l0.89,13.26l1,5.86l3.88,2.71l3.74,-1.24l5.54,-6.27l1.88,3.35l2.13,7.5l2.35,5.81l0.89,4.71l3.25,-0.23l1.59,-3.95l3.4,0.49l1.59,-4.76l1.07,-8.84l2.92,-1.27l2.58,-6.23l-2.68,-3.14l-2,-4.07l2.04,-8.41l5.41,-5.34l4.46,-5.14l-0.44,-4.02l2.72,-4.69l4.82,-1.94l3.9,3.23l0.29,2.84l-1.87,1.39l-6.41,7.02l-2.54,3.94l-1.34,3.58l1.36,5.41l-0.62,5.73l2.72,1.87l1.62,3.07l4.56,-1.18l4.93,-2.07l5.09,-0.45l2.94,2.68l-3.19,3.07l-2.89,0.16l-3.04,-0.91l-3.53,0.8l-3.55,1.53l0.24,3.11l1.78,1.9l1.03,-0.67l-0.33,3.12l-0.54,3.99l-2.25,0.1l-2.23,-3.88l-2.64,1.78l-1.38,3.24l-0.1,3.81l0.6,4.16l-3.87,1.58l-0.64,2.13l-2.7,-0.06l-0.21,-1.18l-2.8,-0.82l-3.53,1.64l-4.38,2.22l-1.92,1.39l-1.32,-1.51l-3.17,-1.89l-1.58,1.31l-2.85,0.9l0.03,-1.7l-2.83,-1.12l-0.05,-1.88l-0.76,-2.39l2.02,-3.59l0.83,0.55l0.69,-1.9l-1.52,-0.77l-0.34,-1.43l0.83,-1.68l0.1,-2.68l-2.26,1.47l-0.98,1.43l-2.47,0.32l-0.8,1.54l-0.47,1.38l0.08,5.12l1.14,2.72l0.13,2.74l0.64,1.79l-1.9,2.33l-0.52,-1.04l-2.34,0.26l-0.55,1l-2.33,-0.13l-3.84,1.96l-2.46,6.74l-1.44,1.23l-2.25,0.88l-2.45,0.9l-0.84,3.61l-6.53,3.37l-2.65,-1.85l0.89,4.84l-4.71,-1.09l-3.64,0.92l0.28,3.07l4.29,1.6l2.07,2.09l2.89,4.26l-0.53,7.88l-1.45,2.32l-4.53,-0.13l-2.33,0.2l-2.98,-0.66l-3.76,0.02l-3.43,-0.7l-3.97,2.77l1.15,1.65l-0.14,2.69l0.12,1.26l0.56,1.34l0.06,1.57l-0.58,2.21l-0.2,1.47l-1.12,1.32l-0.22,2.35l0.67,1.35l1.25,0.33l0.26,2.18l-0.43,2.75l1.45,-0.38l1.48,0.49l1.13,-0.91l2.62,0.54l0.79,2l1.04,1.17l1.37,0.29l1.07,-1.31l1.76,-1.23l2.67,0.07l3.56,-0.05l1.99,-2.69l2.12,-0.7l0.61,-2.3l1.62,-1.59l-1.09,-2.05l1.08,-2.96l1.72,-2.03l0.25,-1.24l3.59,-0.78l2.66,-2.49l-0.15,-2.19l0.32,-2.29l4.08,-1.24l5.53,1.04l2.54,-2.17l1.17,-0.28l1.62,-1.8l1.29,-0.53l2.28,1.29l1.4,0.45l0.87,3.8l1.91,2.19l2.56,2.45l2.19,1.68l2.07,0.24l1.21,1.49l1.8,0.67l0.83,1.58l1.16,0.46l0.86,1.83l1.09,2.09l-0.61,0.77l-0.57,1.91l-0.01,1.08l1.17,-0.27l1.5,-3.06l1.17,-0.21l0.33,-1.88l-2.03,-1.34l1.18,-2.36l2.44,0.6l1.56,1.7l0.52,-1.31l-0.29,-0.68l-2.4,-1.92l-2.06,-1.12l-2.51,-1.35l0.79,-0.74l-0.68,-0.83l-2.2,0.02l-3.12,-3.05l-1.41,-3.17l-2.63,-1.95l-0.92,-1.99l0.34,-1.12l-0.16,-1.97l2.28,-1.42l2.23,0.58l-0.62,0.36l-0.1,0.06l-0.06,1.38l0.83,1.32l0.86,-1.71l1.8,0.63l0.05,1.33l1.28,1.65l-0.57,0.29l2.36,2.85l2.56,1.14l1.63,1.38l2.64,1.41v0l1.21,0.75l0.79,1.23l0.59,0.29l0.47,0.59l-0.38,1.16l-0.24,2.53l0.24,1.75l1.55,1.23l0.06,0.8l0.48,0.25l0.19,1.03l1.44,2.05l1.09,1.64l0.49,2.36l1.05,2.81l2.3,1.51l1.86,-0.04l-1.06,-3.08l1.78,-0.37l-0.83,-1.8l2.59,0.94l-0.04,-2l-1.39,-1.03l-1.56,-1.65l1.06,-0.79l-1.4,-1.7l-0.63,-2.18l0.53,-0.8l1.48,1.88l1.56,0l1.42,-0.59l-1.94,-2.06l3.4,-0.96l1.46,0.35l1.71,0.1l-0.04,0.76l0.88,1.71l2.34,-1.98l1.2,-1.14l3.33,-0.2l0.51,-0.91l-2.45,-1.2l-0.33,-1.44l-0.9,-2.15l1.02,-2.73l1.46,-1.6l0.78,-4.71l0.85,0.37l1.36,-0.85l-0.06,-1.02l2.17,-2.96l1.04,-2.23l2.6,-0.5l0.19,1.51l4.36,1.02l0.81,0.92l-2.68,1.33l-0.5,0.76l3.06,1.16l-0.62,1.85l1.56,0.8l3.81,-2.27l3.07,-0.69l0.55,-1.42l-2.86,0.24l-1.37,-0.96l-0.16,-2.5l2.42,-1.51l2.63,-0.21l1.87,-1.32l2.24,-0.33l2.52,-0.66l0.07,0.9l-4.13,1.67l1.57,1.6l-2.33,3.35l-2.04,0.64l2.42,2.32l3.2,1.48l3.57,3.27l1.03,1.18l1.55,0.44l1.62,1.4l0.7,2.58l-0.42,1.6l-3.31,1.94l-2.41,-0.33l-3.27,0.57l-4.02,-1.43l-4.89,-2.64l-4.64,0.08l-3.27,1.06l-3.37,2.42l-5.34,-0.49l-1.18,2.81l-4.32,0.15l-3.11,3.48l1.78,1.72l-1.36,2.78l2.05,1.96l1.66,3.48l3.06,-0.06l2.71,1.85l1.94,-0.41l0.65,-1.44l3.02,0.12l2.27,1.86l4.26,-0.39l1.93,-2l2.35,0.8l1.71,-0.3l-1.06,1.3l1.03,1.57l0.75,-0.76l0.75,-0.76l0.15,-1.94l0.92,0.68l3.09,-0.97l1.49,0.66l2.31,-0.01l3.23,-1.31l1.51,0.06l3.19,-0.54l1.2,-0.55l3.26,0.45l0.98,0.89l1.34,-0.59l-1.53,-2.82l0.55,-1.1l-0.88,-4.11l1.92,-1.03l0.44,1.37l1.42,1.66l1.92,0.48l1.02,-0.11l3.31,-2.66l1.05,-0.27l0.83,1.06l-0.97,1.78l1.75,1.87l0.7,-0.18l-0.08,-1.77l1.03,-0.84l0.48,-1.26l0.49,-2.82l2.31,-0.29l-0.86,-0.99l-1.31,-0.17l-1.43,-2.62l-1.47,-1.97l-3.06,-4.46l0.28,-2.59l-2.55,-3.7l2.79,-4.09l2.72,-0.66l1.28,-2.39l-1.42,-0.66l0.28,-2.1l-1.79,-2.76l-2.08,0.12l-2.38,-2.84l1.62,-3.21l-0.82,-0.87l2.24,-4.77l2.88,2.53l0.35,-3.19l5.79,-4.85l4.38,-0.12l6.18,3.1l3.32,1.79l2.98,-1.87l4.45,-0.09l3.59,2.29l0.81,-1.31l3.94,0.19l0.7,-2.11l-4.54,-3.1l0.37,-0.3l-0.3,-0.11l-0.8,-1.88l-1.88,-0.67l-0.09,-2.65l1.13,-2.2l1.33,-1.39l-0.71,-1.75l-1.89,-1.07l-1.84,1.12l-1.9,1.5l-1.81,-2.32l-1.2,-1.83l-1.3,-2.44l3.08,-0.37l2.57,-0.64l1.66,-2.67l-0.31,-2.15l-2.11,-1.76l0.56,-2.42l2.17,-2.73l1.78,-3.54l1.77,-5l1.34,-8.84l1.89,-19.97l5.23,-4.07l4.82,-5.44l3.93,-3.13l3.76,-3.86l2.03,-4.04l-0.92,-7.34L657.19,191.76zM499.67,338.21l-1.54,-0.19l0.64,2.1l0.11,4.38l1.06,0.95l1.14,-1.2l1.27,0.23l0.39,-4.81l-1.68,-2.62L499.67,338.21zM501.13,336.43l0.93,-2.89l-0.48,-3.25l-1.81,1.45l-0.57,1.41l0.65,2.53L501.13,336.43zM509.15,279.81l1.68,-3.97l-0.9,-2.5l-4.11,1.66l0.39,2.05L509.15,279.81z M813.81,400.62l-1.48,-2.55l-0.32,-2.25l1.65,-3l2.24,-2.33l1.28,0.92l-0.49,1.85l-1.69,4.88L813.81,400.62zM830.35,486.86l-1.96,0.1l-2.41,0.63l-0.33,0.67l-2.77,1.12l-1.21,1.72l-0.25,0.96l0.34,0.34l2.4,-0.62l1.83,-2.11l2.35,-0.81l2.92,-1.23l1.03,-0.76l-1.06,-0.35L830.35,486.86zM870.07,151.56l-2.66,3.92l0.49,0.52l5.75,1.08l4.25,-0.07l-0.34,-2.57l-3.98,-3.81L870.07,151.56zM769.87,98.34l0.83,-5.72l-7.11,-8.34l-2.11,-0.98l-2.3,1.7l-5.12,18.6L769.87,98.34zM736.89,82.07l4.65,5.73l7.81,4.2l6.12,-1.8l0.69,-13.62l-6.46,-16.04l-5.45,-9.02l-6.07,4.11l-7.28,11.83l3.83,3.27L736.89,82.07zM1002.78,209.19l-7.61,-1.07l0.65,5.15l-1.89,-1.74l0.24,-4.44l-7.35,-7.34l-6.87,-5.86l-3.92,-3.44l-8.06,-3.84l-5.83,0.49l-8.95,-2.29l-1.25,3.62l2.27,5.07l-3.47,2.48l-4.88,-6.99l-5.31,0.89l-5.29,-1.57l-4.97,0.21l-3.75,1.64l-3.45,-2.29l0.34,-6.02l-2.33,-3.5l-5.58,-1.41l-11.32,1.62l-7.34,-6.65l-2.39,-5.35l-25.32,-6.06l-3.7,4.07l2.02,8.4l-4.59,-1.24l-2.07,2.47l-5.43,-2.72l-4.78,2.38l-4.5,-4l-2.71,9.18l-4.41,-3.49l-3.52,-6.98l1.66,-3.84l-1.29,-6.04l-4.53,-5.14l-4.48,0.05l-5.95,-1.74l-0.16,7.47l-11.72,-1.43l-0.68,-4.58l-9,-1.65l-4.48,1.57l-1.23,2.56l-1.43,-6.39l-2.52,1.91l-4.15,-2.55l-3.48,-1.43l2.11,-3.08l7.37,-5.92l3.1,-3.24l0.7,-5.85l-2.25,-4.35l-6.32,-5.84l-8.2,-0.16l-2.56,2.94l-0.76,-6.03l-6.35,-1.92l3.82,-3.13l-4.81,-4.21l-6.62,5.31l-2.68,5.33l-0.77,5.24l-5.15,-0.2l-6.29,6.24l-2.29,-2.61l-7.36,1.08l-0.94,3.15l-7.4,1.51l-5.45,5.51l-3.22,0.3l-3.25,7.02l2.28,5.38l-6.08,1.32l-6.74,-0.44l-4.88,2.02l0.28,10.28l2.49,7.62l-5.18,-5.18l-5.82,0.49l-4.69,3.58l1.28,6.37l-3,-1.59l1.11,-8.67l-1.47,-5.19l-1.4,0.22l0.65,6.62l-5.02,6.04l3.64,7.03l-2.24,8.28l0.67,4.42l3.07,0.64l-1.31,5.08l1.63,4.26l-2.43,3.49l-0.74,3.55l-3.08,1.82l-1.12,2.51l-3.21,-1.02l5.49,-10.2l1.2,-5.01l-3.09,-4.73l0.64,-11.07l-0.9,-5.94l-1.74,-2.78l2.66,-7.28l-0.58,-5.18l-7.42,-2.51l-2.08,1.88l-1.84,8.42l-5.17,7.99l0.08,2.74l1.5,6.49l-0.92,3.83l3.38,0.78l0.08,1.68l2.85,4.11l-1.88,3.97l-1.6,-1.39l0.92,7.34l-2.03,4.04l-3.76,3.86l-3.93,3.13l-4.82,5.44l-5.23,4.07l-1.89,19.97l-1.34,8.84l-1.77,5l-1.78,3.54l-2.17,2.73l-0.56,2.42l2.11,1.76l0.31,2.15l-1.66,2.67l-2.57,0.64l-3.08,0.37l1.3,2.44l1.2,1.83l1.81,2.32l1.9,-1.5l1.84,-1.12l1.89,1.07l0.71,1.75l-1.33,1.39l-1.13,2.2l0.09,2.65l1.88,0.67l0.8,1.88l0.3,0.11l-0.37,0.3l4.54,3.1l-0.7,2.11l-3.94,-0.19l-0.81,1.31l-3.59,-2.29l-4.44,0.09l-2.98,1.87l-3.32,-1.79l-6.18,-3.1l-4.38,0.12l-5.79,4.85l-0.35,3.19l-2.88,-2.53l-2.24,4.77l0.82,0.87l-1.62,3.21l2.38,2.84l2.08,-0.12l1.79,2.76l-0.28,2.1l1.42,0.66l2.62,-0.85l3.25,-1.8l2.38,1l2.81,-0.2l0.5,2.51l-0.5,3.91l-2.45,-0.59l-2.38,0.65l-0.11,2.88l-2.73,-0.37l0.09,1.28l1.55,0.99l1.27,3.46l3.25,1.3l0.54,1.32l-0.69,1.57l0.16,0.92l0.88,2.42l0.29,-2.73l2.26,-0.96l0.8,2.14l2.04,2.23l-2.46,1.18l-2.64,-0.91l-0.62,3.09l1.86,0.21l-0.72,2.48l2.19,1.22l-0.41,3.73l0.52,2.49l2.46,-0.68l1.99,-2.02l1.88,0.1l1.23,-0.66l1.99,0.33l3.1,1.79l2.24,0.38l3.2,3.09l2.09,0.12l0.25,2.91l-1.14,4.25l-0.77,2.45l1.22,0.49l-1.2,1.83l0.92,2.64l0.22,2.09l2.12,0.55l0.23,2.1l-2.54,2.93l1.39,1.69l1.13,1.93l2.68,1.4l0.08,2.78l1.34,0.51l0.23,1.44l-4.04,1.61l-1.06,3.59l3.95,-0.43l4.56,-0.06l5.17,-0.58l2.17,2.34l0.84,2.2l2.05,0.77l3.29,2.58l0.83,1.19l-1.35,1.09l3.66,3.63l1.98,0.36l4.08,-1.79l0.54,2.79l-0.01,3.59l0.84,3.76l1.16,5.65l2.55,3.97l0.48,1.8l0.7,3.58l1.49,2.74l0.98,1.35l1.08,2.86l1.3,3.96l2.65,2.63l1.13,-0.81l0.94,-1.92l2.56,-0.8l-0.85,-0.93l1.28,-2.16l1.45,-0.14l0.01,-4.83l1.19,-2.71l-0.15,-2.38l-0.58,-3.74l0.84,-2.21l1.31,-0.15l2.53,-1.04l1.4,-0.72l0,-1.34l2.79,-1.91l2.11,-1.85l3.14,-3.47l4.04,-1.99l1.5,-1.76l-0.16,-2.25l3.46,-0.62l1.91,0.04l0.4,-1.1l1.08,0.27l0.79,0.33l0.41,-0.55l1.19,0.61l0.88,-1.67l-0.25,-1.25l2.58,0.12l1.17,1.76l0.53,1.45l0.16,1.53l0.8,1.56l1.99,2.42l1.64,0.38l-0.34,1.07l2.2,3.39l0.58,2.74l-0.97,3.6l1.74,0.68l1.57,0.26l3.19,-2.07l1.85,-1.46l1.21,2.41l0.51,3.65l0.91,3.44l1.14,1.48l-0.23,3.11l0.94,1.68l-0.86,2.17l0.27,2.1l-0.83,2.71l-0.31,1.76l0.53,1.56l0.46,-1.65l1.36,1.33l1.49,1.59l0.48,1.39l1.11,1.08l0.62,1.19l-0.31,2.04l1.01,1.52l0.39,2.31l1.62,1.87l0.33,1.42l3.32,2.21l2.65,2.06l1.99,-0.19l0.05,-0.94l-1.1,-2.46l-0.99,-0.77l-0.21,-1.65l-0.27,-0.96l0.3,-1.27l-0.16,-1.88l-1.18,-1.87l-1.66,-1.69l-0.64,-0.26l-1.45,-1.46l-1.7,-0.33l-1.56,-1.61l-0.5,-2.43l-1.14,-2.57l-1.83,-0.09l-0.19,-2.04l0.91,-2.5l1.51,-4.15l0.22,-3.14l2.47,-0.02l-0.41,2.25l2.4,-0.05l2.52,1.31l1.42,2.94l1.14,1.48l2.35,0.41l2.08,1.61l-0.79,1.91l1.02,1.81l3.5,-2.63l2.29,-2.36l3.21,-1.83l2.34,-1.87l0.38,-5.02l-1.28,-5.32l-1.7,-2.32l-2.54,-1.79l-2.62,-3.81l-2.14,-3.1l0.62,-2.05l2.34,-2.81l3.74,-2.56l1.33,-0.49l3.76,0.96l-0.66,1.16l0.74,2.16l1.55,-0.17l0.96,-3.15l2.97,-0.46l3.92,-1.5l1.59,-1.5l0.97,0.98l1.71,-1.34l3.16,-0.35l3.9,-2.55l3.86,-2.82l2.6,-3.68l2.27,-4.09l2.05,-3.41l1.57,-0.28l0.71,-2.52l0.43,-2.61l-1.65,-1l-0.67,-1.73l1.76,-0.89l0.05,-2.43l-1.9,-2.53l-1.71,-3.05l-1.1,-3.31l-3.02,-1.86l1.44,-2.39l2.73,-1.73l1.31,-1.87l3.97,-0.97l-0.46,-1.84l-1.81,-0.09l-2.49,-1.37l-3.14,2.51l-2.22,-1.02l-0.09,-1.58l-2.29,-0.58l-1.48,-2.41l1.43,-1.68l2.75,-0.17l1.73,-2.34l3.17,-2.54l2.44,-1.3l1.48,1.93l-2.22,2.45l0.59,1.41l-1.49,1.67l3.02,-0.98l2.06,-1.69l3.92,-1.06l1.32,0.98l1.64,0.39l0.18,0.59l-0.71,1.94l0.25,0.65l-0.66,0.42l-0.77,1.57l0.75,0.57l0.73,0.32l0.1,0.67l0.82,-0.29l0.34,-0.66l1.36,0.67l1.92,3l-2.08,0.59l1.24,3.6l-0.52,2.57l0.31,1.85l2.53,-0.29l2.24,-1.41l2.54,-0.65l1.06,-1.88l-0.02,-3.99l-0.69,-2.27l-2.42,-4.18l-1.59,-1.57l-1.12,-0.58l0.33,-0.4l0.09,-1.57l1.22,-0.98l1.87,-0.6l1.06,-1.08l0.5,-0.65l1.45,-0.82l-0.11,-2.67l0.84,-1.27l1.22,-1.28l1.07,0.23l0.44,-1.26l3.76,-2.79l1.76,1.86l1.77,-0.05l3.74,-2.25l1.81,-2.28l3.78,-4.53l3.81,-4.66l0.94,-2.82l4.23,-6.01l1.26,-6.85l0.24,-5.27l2.19,-4.51l-0.09,-3.92l-4.05,-5.19l-3.08,-0.31l-1.79,2.38l-2.72,-1.05l-1.38,-3l-4.42,-0.61l10.75,-11.78l9.08,-10.33l9.22,-1.62l8.57,0.94l3.47,-2.7l4.36,0.84l-0.2,3.95l4.33,-0.56l6.26,-1.42l-2.32,-3.38l7.02,-9.56l7.24,-2l2.3,7.14l7.11,-6.36l1.68,-4.92l3.41,-0.51l-2.25,8.37l-5.04,4.57l-4.83,5.73l-5.01,6.78l-4.36,1.18l-0.15,2.44l-2.37,3.07l-1.35,6.95l1.56,10.65l1.2,6.69l1.04,3.08l4.04,-4.18l0.84,-4.66l4.18,-1.14l0.97,-5.4l4.9,-2.47l-1.17,-2.1l1.2,-4.15l2.6,-0.19l0.38,-7.46l-3.19,-1.17l-0.1,-2.14l3.36,-5.22l0.9,-3.63l3.75,0.76l2.7,-2.39l1.28,2.08l7.31,-4.42l4.01,3.9l1.03,-2.55l4.07,-3.5l4.29,-4.1l2.49,-0.69l7.84,-4.51l5.23,1.32l0.72,-1.6l-0.33,-2.53l-1.29,-1.67l-1.67,-5.2l-2.53,-3.44l3.63,0.48l3.6,-2.89l0.02,-0.04l1.59,-2.83l-1.26,-3.19l3.36,-1.64l-0.61,2.55l1.52,2.37l3.19,-0.87l2.85,1.1l0.63,2.89l3.73,1.92l2.14,2.26l2.63,0.19l1.12,-1.35l0.07,-6.46l4.6,-0.7l2.78,-2.97L1002.78,209.19zM872.26,293.25l1.64,4.41l-0.12,5.85l-0.65,3.24l0.32,4.54l-0.31,4.01l0.52,3.4l1.84,-3.13l2.13,2.44l0.08,-2.84l-2.73,-4.23l1.72,-6.11l4.15,1.41l-2.82,-7.68l-1.16,-4.51l0.07,-4.5l-0.97,-4.5l-0.73,-3.15l-1.25,0.67l1.11,2.21l-2.59,2.17L872.26,293.25zM979.95,178.65l3.66,-0.52l2.89,-2.06l0.24,-1.19l-4.06,-2.51l-2.38,-0.02l-0.36,0.37l-3.57,3.64l0.5,2.73L979.95,178.65zM869.51,140.34l10.33,0.3l2.21,-8.14l-10.13,-6.07l-7.4,-0.51l-3.7,2.18l-1.51,7.75l5.55,7.01L869.51,140.34zM894.64,142.03l3.24,-4.25l-7.04,-2.88l-5.23,-1.68l-0.67,3.59l5.21,4.27L894.64,142.03zM827.14,429.25l-0.77,-1.06l-2.69,-0.06l1.71,2.18l0.04,1.08l-1.65,-0.23l0.44,1.72l0.84,0.15l0.12,1.99l1.33,-0.63l-0.69,-1.75l-0.06,-0.95l2.16,0.75L827.14,429.25zM821.49,439.08l-1.53,1.06l-1.77,0.79l-1.1,2.37l0.46,0.82l2.08,-1.57l1.32,0.11l0.88,-1.17l1.78,1.33l-0.86,1.33l0.79,2.03l3.3,1.63l0.8,-1.31l-0.9,-2.06l1.31,-1.42l1.02,2.86l0.96,-2.57l-0.17,-1.58l-0.29,-1.87l-0.2,-1.04l-0.24,-1.42l-2.27,-1.34l0.17,2.18l-1.98,0.08l-0.46,1.26l-2.13,0.77L821.49,439.08zM811.49,419.94l0.42,1.26l1.38,1.65l0.36,-1.04l0.84,0.67l-0.88,0.73l-0.14,1.19l1.4,0.63l2.55,-0.42l1.79,1.72l0.72,-1.05l1.04,1.5l2.18,1.4l0.29,-1.32l-0.92,-0.69l0.27,-1.56l-3.5,-1.59l-1.24,0.34l-1.49,-0.32l-0.63,-2.29l0.44,-2.33l1.65,-0.96l0.74,-2.42l-0.96,-2.09l0.46,-1.22l-0.25,-0.75l-0.86,0.76l-1.73,-0.84l-1.7,0l-0.91,2.66l-0.29,4.55l-1.13,-0.96L811.49,419.94zM808.99,435.38l1.85,-1.56l-0.5,-2.31l-1.47,2.82l-1.68,1.96l-2.03,1.74l-1.38,1.97l3.73,-2.67L808.99,435.38zM814.05,427.7l1.2,1.42l0.74,-2.47l-0.97,-1.03l-2.4,-0.1L814.05,427.7zM817,430.02l0.43,1.35l-0.2,1.45l0.1,1.32l1.78,-0.85l1.3,-1.2l0.05,-1.19l-1.78,0L817,430.02zM819.98,432.89l-0.31,1.76l-0.7,0.79l-0.58,0.76l1.73,1.95l0.88,-0.84l0.88,-1.79l1.01,-0.93l0.27,-2.71l-2.08,2.74l0.45,-1.91L819.98,432.89zM701.91,437.46l-1.94,-1.57l-1.27,4.58l0.5,4.04l1.33,2.23l2.44,-0.64l1.18,-0.8l0.42,-2.92l-1.36,-2.93L701.91,437.46zM868.65,337.12l-1.18,2.33l0.48,4.1l-1.76,4.38l-1.59,1.38l-4.11,3.51l-1.87,-1.67l-2.93,6.17l-3,-0.7l-5.58,1.02l-2.06,2.33l-2.82,1.75l-1.47,2.11l-2.65,1.03l1.14,2.28l1.77,0.96l-0.69,2.96l1.36,1.27l1.81,-1.37l1.87,-5.61l-2.84,-2.46l3.28,-0.06l3.32,-1.59l4.88,-0.75l0.12,2.52l1.88,1.29l4,-3.84l4.93,-0.21l3.58,-1.6l1.46,-2.42l-0.49,-1.73l1.06,-2.78l-0.05,-3.64l2.59,-3.6l0.08,-2.94l-1.53,-5.11L868.65,337.12zM848.95,364.89l1.44,-0.78l1.15,1.07l1.58,-2.03l-0.36,-1.15l-2.06,-0.73l-1.15,1.42l-1.59,-0.39l-1.55,2l-0.02,1.58l1.83,0.95L848.95,364.89zM880.73,326.62l-1.97,-0.83l-2.15,-1.31l-3.29,-4.12l-0.83,3.09l-0.82,5.38l-3,0.21l-1.39,2.94l0.39,3.74l3.12,-0.06l1.53,-4.12l4.41,2.58l2.46,-3.76l4.16,-1.05l-0.62,-4.35L880.73,326.62zM837.99,471.19l-3.46,0.12l-0.67,1.53l1.94,0.1l1.58,-0.18l2.34,0.23l2.37,1.15l-1.02,-2.13L837.99,471.19zM829.05,473.44l1.94,0.51l1.05,-0.93l-0.7,-0.92l-2.84,0.13L829.05,473.44zM870.6,470.63l-3.01,-0.53l-2.08,-1l-2.4,-0.97l-2.49,0l-3.22,1.68l-2.34,2.96l-2.9,-1.67l-0.78,-4.51l-0.44,-1.04l-4.5,-1.14l-1.44,0.91l-3.78,0.67l1.19,1.38l2.5,0.51l1.11,1.66l4.1,0.01l0.24,0.74l-2,-0.05l-3.02,1l2.14,1.37l0.01,1.21l0.64,1.02l1.08,-0.25l0.83,-1.36l4.21,2.58l2.31,0.23l5.44,2.37l1.35,2.35l0.73,3.05l-1.77,0.78l-1.19,2.29l3.55,-0.09l0.69,-0.8l2.85,0.57l2.5,2.31l-0.05,-9.16L870.6,470.63zM851.78,479.52l-0.5,1.01l0.27,2.11l1.44,-1.91l0.01,-1.34l-0.64,-0.82L851.78,479.52zM772.06,475.39l0.7,-3.47l-1.36,-1.76l-2.06,-0.25l-0.98,-1.56l-0.48,-1.94l-1.01,-0.07l-1.61,-0.97l1.12,-2.27l-2.13,-1.27l-1.62,-2.33l-2.36,-1.91l-2.85,-0.04l-2.66,-3l-1.55,-1.16l-2.17,-1.89l-2.48,-2.73l-4.34,-0.54l-1.81,-0.11l0.25,1.42l2.92,3.08l2.11,1.56l1.47,2.39l2.53,1.75l1.03,2.17l0.82,2.39l2.46,2.32l2.13,3.9l1.39,2.09l2.12,2.27l1.2,1.69l3.6,2.28l2.36,2.34l3.1,-0.06L772.06,475.39zM811.44,489.58l-2.61,0.56l3.72,1.98l1.18,-0.05l0.17,-0.76l-0.98,-0.86L811.44,489.58zM815.48,487.25l-1.76,-0.84l-2.23,0.59l0.01,1.03l3.73,0.35l4.21,-0.8l0.41,-1.56l-2.51,1.03L815.48,487.25zM792.03,484.6l-1.02,-1.82l-5.2,-1.35l-0.62,1.16l-5.37,-0.28l-0.38,-1l-1.16,-0.21l-2.26,-1.09l-3.4,-0.17l-1.92,2.68l2.57,0.21l0.49,1.21l5.11,1.16l1.17,-0.35l2.06,0.28l3.25,1.07l2.62,0.51l2.91,0.21l2.54,-0.08l3.08,1.13l3.2,-1.07l-3.44,-1.67L792.03,484.6zM814.34,467.31l-2.51,-2.48l0.4,-2.11l2.45,-0.4l4.67,-0.14l2.7,0.54l2.11,-0.54l2.25,-2.76l-0.49,-0.62l-2.77,2.02l-3.22,0.12l-3.54,-0.39l-2.19,-0.82l-2.38,2.07l-0.59,1.15l-1.41,4.2l-0.4,2.21l-1.16,1.83l0.87,1.91l1.18,0.02l0.43,2.69l-0.8,2.57l1.2,0.82l1.78,-0.41l-0.11,-4l-0.24,-3.25l1.87,-0.85l-0.21,2.72l2.02,1.64l-0.36,1.08l0.7,0.77l2.75,-1.08l-1.36,2.29l1.1,0.98l1.5,-0.82l0.02,-1.84l-2.52,-3.22l0.51,-0.96l-2.65,-3.57l2.47,-1.08l1.22,-1.63l1.22,0.4l0.23,-1.28l-5.23,0.95L814.34,467.31zM808.57,486.53l-1.73,0.23l-1.01,-0.75l-0.75,1l-1.54,0.02l-0.96,1.62l1.51,0.02l1.94,-0.38l3.24,-0.57L808.57,486.53zM804.64,463.1l0.94,-1.9l3.32,-0.33l-3.14,-2.58l0.48,-1.28l-2.06,-2.64l1.59,-2.52l2.06,-0.95l-0.5,-1.36l1.88,-0.14l0.2,-1.1l-2.34,-0.84l-1.85,-0.78l-0.13,-1.22l-1.44,-1.42l-1.13,0.01l-1.41,2.19l-2.16,1.95l-2.39,1.53l-1.11,1.05l-1.38,1.77l-2.01,2.21l-3.36,0.6l-1.2,0.53l-0.56,2.36l-2.17,0.52l-2.05,-0.96l-1.67,1.85l-0.33,2.58l0.39,2.44l1.35,2.38l1.4,0.77l0.43,3.74l2.31,0.32l1.84,-0.15l1.02,1.35l3.33,-1l1.4,0.89l2,0.16l1.11,1.71l3.19,-1.26l0.41,0.99l1.08,-4.27l0.07,-2.78l2.7,-1.91L804.64,463.1zM835.21,465.56l-1.16,-1.47l0.43,-1.69l1.45,0.27l0.15,-2.43l-0.26,-1.14l-1.66,-0.24l-0.2,-1.52l-0.93,1.01l-0.56,2.23l0.83,3.56l1.13,1.76L835.21,465.56zM785.28,408.7l1.23,-1.3l-0.63,-1.13l-1.61,-0.07l-3.06,0.83l-1.38,1.34l0.08,2.53l2.3,0.91l2.42,-1.41L785.28,408.7z"/>
	</g>
</svg>