<?xml version="1.0" standalone="no"?>
<svg version="1.0" xmlns="http://www.w3.org/2000/svg" viewBox="0 0 200 439">
  <metadata>Created by potrace 1.7, written by Peter Selinger 2001-2005</metadata>
  <g transform="translate(35, 30) scale(0.15,0.15)" fill="rgb(0,128,0)" stroke="none">
  		<path d="M944.1,508.23l1.76,1.67l-0.92,0.38l-0.94,-1.27L944.1,508.23z
        M942.92,507.59l0.58,-0.16l0.75,0.36l-0.46,-2.33l-1.34,-0.89l0.06,2.21L942.92,507.59zM670.34,620.36l-1.81,
        -1.34l-0.19,0.87l-0.41,1.76l0.07,-1.96l-0.1,-0.81L670.34,620.36zM924.89,489.69l-1.85,
        -0.44l-0.18,1.12l0.59,0.44l1.72,0.29l1.09,-0.06l-0.46,-0.89l-2.3,-1.29l-1.29,-0.67l-0.42,
        0.29l1.05,0.94l1.54,1.01l2.2,1.19L923.52,486.69zM929.25,492.65l-1.67,-0.69l1.07,1.74l1.96,0.02l-0.78,-0.97L929.25,
        492.65zM928.16,490.77l0.42,-0.52l-1.12,-1.35l-1.01,-2.25h-0.95l0.58,1.68L928.16,490.77zM870.69,488.89l2.9,0.12l1.57,
        0.47l2.2,-0.97l-0.36,-2.08l1.71,-0.93l2.38,-0.8l3.66,1.23l1.46,2.46l1.59,1.55l2.18,1.8l2.83,0.43l2.41,0.32l0.69,
        0.73l1.86,-0.2l0.31,-0.82l-2.98,-1.19l0.84,-0.53l-2.17,-0.48l0.11,-1.25l-1.61,0.09l-1.82,-2.99l-2.5,-1.84l-0.62,
        -1.87l2.58,-0.3l-0.68,-1.49l-4.67,
        0.05l0.31,1.65l-1.57,1l-0.79,0.96l-1.6,0.21l-0.27,
        0.78L895.02,481.01zM901.31,473.03l1.27,0.91l0.65,1.08l0.53,1.65l0.88,-0.74l-0.34,-1.45l-1.07,-0.89l-1.12,-1.17l-1.18,
        -0.67l-0.95,-0.61l-1.51,-0.78l-0.78,0.67l2.02,0.82L901.31,473.03zM910.03,478.91l-0.85,-0.63l-0.3,-0.83l-0.39,0.27l0.6,
        2.13l1.23,1.78l1.21,1.08l0.79,-0.28l0.39,-0.79l-1.32,-0.95L910.03,478.91zM963.01,588.66l-1.99,1.5l-0.64,-1.53l-0.62,
        -1.57l-1.97,1.7l-0.42,2.07l-1.06,0.95l-1.25,2.81l-1.68,1.98l-2.4,2.01l-2.01,1.47l-1.81,
        -1.57L963.01,588.66zM972.77,577.93l-1.89,-0.28l-2.26,-1.15l-0.42,-2.65l-1.27,-0.95l-0.06,2.38l-2.03,-3.67l-0.79,-3.06l-2.18,-0.89l-1.53,-1.89l-1.04,0.27l1.17,2.41l2.21,3.04l1.34,1.43l-0.08,0.61l1.14,2.34l0.13,2.28l-0.47,2.74l-2.03,1.25l-0.08,1.31l3.02,1.45l0.92,2.01l-1.62,3.04l1.17,0.54l0.48,0.98l2.17,-1.49l1.39,-2.53l1.06,-1.97l0.41,-0.68l-0.26,-1.56l0.75,-1.1l2.14,0.07l0.85,-2.09l0.68,-3.15l-1.42,-0.41L972.77,577.93zM943.83,526.72l-1.46,-1.38l-2.3,-1.86l-0.9,-0.84l-1.23,-1.01l-1.57,-1.01l-1.21,-0.04l0.39,1.01l1.86,2.1l1.81,1.59l2.01,1.35l1.54,0.81L943.83,526.72zM979.95,508.74l-1.64,0.91l-0.89,0.16l-1.4,0.6l0.36,1.09l1.79,-0.61l1.78,-0.72l0.23,-0.16l0.35,-1.4L979.95,508.74zM974.69,512.92l-1.27,-0.36l-1.08,1l0.27,1.29l1.55,0.36l1.74,-0.4l0.46,-1.53l-0.96,-0.84L974.69,512.92zM889.35,588.22l-2.19,0.71l-1.53,0.51l-2.71,-1.28l-1.83,-0.33l-0.07,1.7l1.62,3.25l0.38,2.5l1.73,3.28l1.72,0.12l0.58,0.21l1.95,-2.67l0.98,1.05l0.29,-3.06l0.96,-1.3l-0.2,-4.43L889.35,588.22zM904.7,540.45l-0.07,-1.77l-0.79,-2.49l-2.19,-2.49l-1.3,-1.17l-1.99,-1.87l-0.48,-3.21l-0.69,0.46l-1.14,-1.31l-1.12,0.66l-1.09,-3.25l-1.6,-1.87l0.37,-0.72l-1.88,-1.29l-1.98,-1.41l-3.04,-1.54l-0.91,-1.99l0.27,-1.52l-0.76,-2.5l-0.71,-0.35l-0.43,-1.45l-0.6,-2.48l0.29,-1.28l-1.35,-1.13l-0.93,-1.22l-1.8,1.08l-1.01,-2.25l0.1,-1.04l-0.21,-1.62l-1.02,-1.45l-0.12,-1.2l-0.7,-0.34l-0.19,-1.78l-0.79,-1.39l-1.04,1.06l-0.07,0.81l-0.53,1.56l-0.68,1.51l0.44,0.95l-0.54,0.58l-0.37,2.16l0.32,1.64l-0.2,0.84l0.39,1.39l-0.85,2.3l-0.35,1.59l-0.57,1.29l-0.55,1.57l-1.85,1l-2.68,-0.99l-0.43,-0.9l-1.47,-0.75l-0.79,0l-2.03,-1.72l-1.44,-1l-2.16,-0.93l-2.23,-1.6l-0.2,-0.81l1,-1.41l0.82,-1.43l-0.33,-1.15l0.96,-0.1l1.06,-1.16l0.75,-1.53l-1.29,-1.41l-0.66,0.55l-1.05,-0.25l-1.64,0.82l-1.74,-0.88l-0.8,0.29l-2.36,-0.73l-1.49,-1.17l-1.86,-0.7l-1.49,0.41l2.05,0.94l0.05,1.45l-2.36,0.54l-1.43,-0.34l-1.7,1.01l-1.22,1.63l0.44,0.71l-1.26,0.75l-1.34,2.3l0.59,1.58l-1.78,-0.27l-1.75,-0.02l-1.56,-1.71l-2.07,-1.32l-1.36,0.39l-1.23,0.41l-0.05,0.72l-1.23,-0.34l-0.04,0.8l-1.41,0.49l-0.68,1.14l-1.53,1.42l-0.34,2.21l-1.24,-0.63l-0.88,1.41l1,1.38l-1.19,0.58l-1.18,-2.51l-1.96,2.47l-0.07,1.59l-0.13,1.17l-1.64,1.49l-0.72,1.58l-1.52,1.31l-2.95,0.87l-1.55,-0.07l-0.74,0.27l-0.42,0.65l-1.7,0.33l-2.21,1.11l-0.77,-0.37l-1.27,0.23l-2.14,1.1l-1.37,1.28l-2.28,1l-1.18,2.07l-0.21,-2.29l-1.16,2.17l0.3,1.77l-0.38,1.52l-0.57,0.75l-0.3,1.77l0.65,0.92l0.27,0.97l1.39,2.43l0.05,1.59l-0.83,-1.2l-1.39,-0.9l0.95,2.88l-1.23,-1.35l0.39,1.33l1.6,2.48l0.35,2.47l1.24,1.26l0.07,0.93l1.12,2.08l-0.12,1.83l0.46,1.85l1.48,3.29l0.31,1.95l-0.34,2.3l0.1,1.2l-0.48,0.76l-1.39,0.46l-0.06,1.93l1.51,0.64l2.97,2.17l1.88,0l2.05,0.13l1.35,-1.08l1.41,-0.96l0.82,0.15l1.67,-1.8l1.92,-0.15l2.02,-0.37l2.48,0.61l1.76,-0.3l2.38,-0.08l1.04,-1.36l0.54,-1.75l2.43,-0.77l2.97,-1.7l2.68,0.22l3.19,-1.1l3.63,-1.18l5.02,-0.31l2.7,1.6l1.97,0.09l3.6,2l-0.53,0.77l1.48,1.25l1.75,2.43l-0.09,1.79l2.19,1.4l1.07,-2.69l1.75,-1.15l2.28,-2.85l0.22,2.47l-1.08,1.65l-0.42,1.95l-1.47,1.88l2.5,-0.63l1.37,-2.35l0.68,2.52l-0.92,1.66l2.7,0.41l1.38,1.4l0.65,1.75l0.52,2.66l1.81,2.18l2.71,1.03l1.6,0.25l1.59,0.56l2.42,0.97l2.46,-2.58l1.53,-0.67l-0.44,1.85l1.72,0.63l2.32,1.58l1.69,-1.54l1.29,-1.38l2.59,-1.45l3.14,-0.13l1.61,-1.22l-0.14,-1.11l0.36,-2.4l0.71,-2.58l1.08,-1.71l0.83,-2.93l0.94,-1.67l1.02,-2.59l2.08,-1.63l1.24,-3l0.55,-2.34l-0.06,-1.86l0.76,-2.87l0.49,-1.48l0.16,-2.81l-1.34,-2.68L904.7,540.45z"/>
	</g>
</svg>