<?xml version="1.0" standalone="no"?>
<svg version="1.0" xmlns="http://www.w3.org/2000/svg" viewBox="0 0 200 439">
  <metadata>Created by potrace 1.7, written by Peter Selinger 2001-2005</metadata>
  <g transform="translate(-10,-20) scale(0.216963,0.216963)" fill="rgb(0,128,0)" stroke="none">
  		<path id="southAmerica" title="South America" class="land" d="M302.37,434.36l-0.06,-1.12l1.61,-0.37l0.59,0.1l-0.11,2.11l-2.34,0.31l-0.5,-0.25L302.37,434.36zM309.41,631.56l-2.38,-1.12l-3.36,2.7l1.4,2.05l2.38,-2.05l1.26,1.59l3.79,-1.36l0.84,-1.58l-2.24,-2.01L309.41,631.56zM377.41,482.2l-0.95,-3.57l-1.02,-0.88l-2.4,-0.11l-2.16,-0.81l-3.58,-3.13l-4.15,-2.31l-4.19,0.11l-5.46,-1.47l-3.26,0.86l0.46,-1.54l-1.37,-1.63l-4.66,-1.7l-3.53,-1l-2.13,1.83l-0.1,-2.79l-4.96,-0.44l-0.87,-0.84l2.11,-2.29l-0.08,-1.92l-1.5,-0.46l-1.57,-4.88l-0.69,-1.54l-0.96,0.13l-0.46,-1.14l-2.97,-2.36l-2.06,-0.66l-0.95,-0.31l-3.01,-0.75l-2.27,0.2l-0.3,0.5l-3.36,-0.56l-1.11,-0.98l-1.5,-1.37l-1.06,-0.07l-0.08,-1.45l-1.73,-1.83L307.7,440l-1.1,-0.66l-1.46,0.06l-0.45,-2.26l-2.13,-1.39l-2.24,-0.21l-0.96,-1.34l2.38,-0.84l-3.36,0.04l-3.47,0.17l-0.03,0.71l-1.57,0.88l-2.14,-0.35l-1.61,-1.27l-3,0.29l-2.52,-0.02l-0.11,-0.94l-1.82,-1.58l-1.97,-0.05l-1.01,-2l-0.98,0.9l0.39,1.34l-3.49,1.15l0.14,2.15l0.87,1l-0.63,2.04l-1.21,0.18l-1.06,-2.24l1.24,-1.64l0.03,-1.48l-0.91,-1.29l1.65,-0.33l0.08,-0.67l0.54,-0.96l-0.74,-0.75l-0.99,-0.17l-1.36,1.37l-1.09,0.64l-2.21,1.44l-2.19,-0.24l-0.22,0.59l-1.77,0.05l-1.61,1.32l-0.52,2.39l-0.03,0.93l-1.15,0.3l-2.1,1.97l-1.45,-0.09l-0.34,0.41l0.65,1.66l-0.53,0.84l-0.9,-0.2l-0.36,1.37l1.14,1.5l0.44,2.37l-0.6,0.73l0.63,2.56l-0.53,1.62l1.03,0.66l-1.07,1.46l-1.18,1.75l-1.39,0.19l-0.66,1.01l0.12,1.4l-1.05,0.21l0.38,0.87l-1.93,1.11l-1.54,0.6l0.2,1.14l-1.06,1.79l-0.52,1.73l-0.98,0.42l0.47,2.53l-0.57,0.79l1.68,1.22l1.07,-1.29l0.61,1.22l-1.49,2.08l-2.24,1.76l-0.87,1.96l1.36,2.67l-0.91,1.25l2,1.13l2.18,1.83l0.88,2.07l1.15,1.28l2.65,5.62l2.76,5.24l2.37,3.75l-0.46,0.83l1.16,2.37l2.16,1.78l5.03,3.17l5.56,2.92l0.24,1.2l2.81,1.68l0.58,4.15l0.21,4.87l-0.88,6.75l-0.9,6.37l-0.51,6.04l-1.64,3.87l0.34,3.96l-0.84,2.67l0.65,4.91l-1.19,4.97l-1.94,5.43l-1.72,5.6l-1.18,0.11l0.23,3.98l0.81,3.5l-1.29,2.48l-0.96,6.84l-0.88,5.42l1.77,0.54l0.88,-4.75l1.88,1l-1.46,7.97l-3.12,-1.37l-0.95,6.56l-2.67,3.57l4.26,1.19l-2.96,3.19l-1.19,4.03l0.36,7.34l1.41,2.94l-0.79,2.62l0.88,2.87l3.49,2.63l3.21,3.25l3.16,1.54l1.19,-0.11l0.45,-4.38l2.53,-1.67l1.35,-1.13l2.49,0.03l1.18,0.23l-1.87,-2.63l-0.91,-4.64l1.15,-2.06l2.56,-1.72l1.82,-5.03l3.31,-2.38l0.96,-3.73l-2.68,-0.83l-2.76,-2.98l0.8,-3.01l2.2,-2.04l2.65,-0.01l0.66,-2.11l0.41,-3.91l2.25,-2.38l2.58,-1.18l-0.84,-1.96l-1.54,1.19l-1.89,-1.14l-0.39,-3.71l1.08,-0.97l2.7,1.35l2.87,-0.51l1.68,-1.3l-0.52,-1.85l0.57,-2.72l-0.59,-2.15l3.08,0.36l5.62,-0.75l4.16,-1.91l2.69,-4.52l0.14,-1.7l-1.75,-1.51l0.38,-2.37l-3.56,-2.91l0.19,-1.76l1.71,1.87l1.9,-0.11l2.59,1.46l1.52,-0.36l2.07,0.68l3.17,-1.89l1.21,-2.12l1.85,-1.91l1.28,-3.15l1.91,-1.54l2.47,-2.59l3.11,-5.68l1.96,-1.75l0.64,-1.55l0.52,-3.18l-0.47,-1.73l0.41,-2.32l2.37,-3.06l3.3,-2.44l3.14,-0.89l1.97,-1.35l4.41,-1.17l3.05,0.01l0.66,-1.81l2.27,-1.3l0.48,-3.09l2.84,-3.88l0.5,-3.94l0.89,-1.16l0.3,-1.93l0.78,-4.48l-0.2,-5.4l0.78,-2.11l0.7,-0.06l2.08,-2.47l1.79,-3.22l3.95,-3.94l1.43,-1.84l1.12,-4.65L377.41,482.2zM285.29,642.4l-1.4,-3.53l-1.08,-2.15l-2,-0.54l-2.58,1.91l-0.91,3.2l-1.45,2.17l-3.72,-1.7l-3.94,-3.13l-2.31,-0.97l3.86,5.25l2.86,2.57l3.53,2.71l2.94,0.71l2.04,1.48l1.66,0.4l1.38,0.16l2.4,-1.53l0.93,-1.98l1.43,1.73l2.66,-0.25l1.26,-2.44l-3.93,-1.21L285.29,642.4z"/>
	</g>
</svg>