<?xml version="1.0" standalone="no"?>
<svg version="1.0" xmlns="http://www.w3.org/2000/svg" viewBox="0 0 400 439" width="500" height="500">
  <metadata>Created by potrace 1.7, written by Peter Selinger 2001-2005</metadata>
  <g transform="translate(0,30) scale(0.856963,0.856963)" fill="rgb(0,128,0)" stroke="none">
		<path d="M258.03,439.56L258.37,439.14L257.31,438.36L256.4,437.52L255.15,437.03L253.58,436.93L253.69,436.65L252.14,436.49L251.18,437.33L249.48,437.9L248.29,438.61L246.91,438.82L246.14,438.12L245.87,438.35L244.75,438.23L244.81,437.63L243.81,436.62L242.49,435.41L241.41,434.27L240.69,432.73L240.27,432.26L240.13,431.5L240.71,430.77L240.52,430.02L240.78,428.8L241.21,428.52L241.14,427.23L240.98,426.5L241.08,425.23L241.38,424.08L242.02,423.1L241.74,422.05L241.88,421.41L242.12,421.13L241.38,420.33L240.36,419.89L239.55,419.24L238.7,418.7L238.25,418.64L236.97,418.24L236.41,418.49L235.68,418.56L235.01,418.36L234.12,418.21L233.79,418.53L232.89,418.85L231.59,418.93L230.29,418.67L229.85,418.81L229.59,418.58L228.79,418.62L228.17,419.13L227.88,419.01L227.06,418.64L226.82,419.08L225.9,418.55L226.46,417.55L226.97,417.46L227.52,416.68L227.84,415.21L227.67,414.94L227.96,413.89L227.71,413.44L228.17,412.17L228.21,411.37L227.68,411.36L227.67,410.93L228.26,410.88L228.97,411.63L229.67,409.34L230.09,408.06L229.58,407.55L230.24,405.74L231.75,403.97L231.84,402.53L231.17,401.9L229.47,402.15L226.99,402.05L224.02,402.74L222.13,403.53L221.64,404.4L221.41,406.89L220.74,408.62L218.96,409.82L217.19,410.33L215.09,410.86L212.96,411.15L210.5,411.97L209.34,410.75L206.36,409.96L205.26,408.51L204.61,406.82L202.75,404.61L202.19,402.3L201.32,400.83L200.83,399.19L201.1,397.72L201.31,393.64L201.8,391.43L202.89,388.72L201.79,388.81L199.8,388.13L197.62,387.17L196.83,385.7L196.21,383.51L194.56,381.71L193.59,379.85L192.18,377.67L190.21,376.39L187.91,376.45L186.15,378.98L183.82,378.02L182.37,377.05L181.67,375.29L180.74,373.6L179.08,372.17L177.64,371.14L176.62,369.97L171.76,369.97L171.76,371.32L169.54,371.32L163.96,371.35L157.56,369.04L153.33,367.43L153.59,366.79L150.03,367.15L146.84,367.4L147.98,370.36L149.28,372.97L150.32,375.09L151.36,377.1L153,377.99L155.16,380.26L155.05,381.69L154.01,382.87L152.86,382.69L152.66,382.93L154.31,384.76L156.04,385.51L156.74,386.33L157.11,385.93L159.04,387.32L160.38,388.28L160.8,389.96L160.71,392.21L162.15,392.99L164.17,394.47L166,396.2L166.74,398.05L167.24,398.06L168.42,396.95L168.49,396.41L167.47,395.05L166.34,393.66L164.99,393.56L164.84,391.94L164.06,390.5L163.23,389.15L162.3,386.26L160.53,384.66L159.94,383.55L159.09,382.75L158.52,380.71L158.02,380.76L157.66,379.66L157.23,379.44L156.77,378.69L154.69,376.48L153.72,375.15L153.45,372.72L152.99,371.16L153.44,369.83L155.04,370.73L155.97,370.59L158,371.88L157.96,373.13L158.95,375.61L160.46,378.03L160.58,379.03L161.9,380.58L163.52,382.24L165.03,382.5L165.73,384.69L167.39,386.21L168.82,386.94L168.39,388.86L168.9,389.62L171.31,390.88L172.67,392.79L175.49,395.18L177.96,398.2L178.9,399.72L179.16,400.92L180.1,402.26L180.09,403.3L179.44,404.07L179.73,404.92L178.8,405.21L179.47,406.66L180.87,408.53L183.88,410.2L185.05,411.54L187.92,412.47L189.49,412.64L190.2,413.42L192.54,414.82L195.72,416.17L197.82,416.58L200.44,417.91L202.54,418.47L204.52,419.23L205.93,418.94L208.19,417.85L209.75,417.64L212.04,418.4L213.49,419.34L216.66,422.45L218.17,423.63L219.45,424.2L221.2,424.25L222.64,424.75L223.43,425.37L224.99,425.55L226.15,426.12L227.16,426.39L228.78,426.43L229.09,425.76L229.95,426.01L230.43,426.9L230.22,427.11L229.75,426.68L229.44,427.12L230.85,428.41L232.03,429.3L232.65,430.26L233.96,431.41L234.93,432.31L234.29,432.85L235.08,433.25L234.71,434.15L234.69,435.01L235.07,435.58L235.97,435.86L236.61,436.64L237.17,435.97L236.99,435.14L237.73,435.65L237.91,436.48L238.88,436.84L239.98,437.39L240.76,438.07L240.86,438.69L240.54,439.18L241.11,439.77L242.63,440.4L242.95,440.82L243.04,440.21L244.24,440.21L244.97,440.54L246.12,440.72L246.68,441.86L247.61,442.02L247.97,441.54L248.46,443.22L249.76,443.08L250.17,442.66L250.93,442.3L249.6,440.78L249.87,440.19L250.48,440.09L251.62,439.39L252.18,438.41L253.41,438.23L254.81,439.01L255.33,439.94L256.04,440.13L255.35,440.88L255.95,442.4L256.88,443.21L257.24,441.85L258.15,442.05L258.68,441.21z M37.86,404.23l-0.23,0.36l-0.94,0.21l-0.48,-0.63l-0.32,-0.24l-0.02,-0.19l0.27,-0.26l1,0.28L37.86,404.23zM40.03,406.52l-0.5,-0.26l-1.07,-0.5l-0.21,-0.06l-0.16,0.28l0.19,0.58l-0.49,0.48l-0.14,0.33l0.46,1.08l-0.08,0.83l0.7,0.42l0.41,-0.49l0.9,-0.46l1.1,-0.63l0.07,-0.16l-0.71,-1.04L40.03,406.52zM27.77,399.82l-0.43,0.3l-0.15,0.22l0.94,0.55l0.33,-0.3l-0.06,-0.7L27.77,399.82zM8.5,250.59l-2.77,0.97l1.7,1.52l1.84,1.04l1.72,-0.87l-0.27,-2.15L8.5,250.59zM0,235.22l2.04,-1.26l0.23,-0.68L0,232.61V235.22zM45.62,263.79l-1.5,0.8l-2.55,1.86l0.43,2.42l1.43,1.32l2.8,-1.95l2.43,-2.47l-1.19,-1.63L45.62,263.79zM34.14,403.23l1.5,0.09l0.09,-0.32l-1.38,-0.13L34.14,403.23zM32.17,401.38l-0.75,0.41l0.11,0.12l0.36,0.68l0.98,0.11l0.2,0.04l0.15,-0.17l-0.81,-0.99L32.17,401.38zM105.85,283.09l-2.69,0.38l-1.32,-0.62l-0.17,1.52l0.52,2.07l1.42,1.46l1.04,2.13l1.69,2.1l1.12,0.01l-2.44,-3.7L105.85,283.09zM439.45,42.64l-8.41,-3.81l-13.61,7.55l-7.14,6.92l3.08,-10.97l-2.33,-7.15l-5.44,6.12l-8.45,-6.91l-9.93,2.24L385.81,33l15.09,-2.03l10.73,-0.92l5.18,-8.31L399.27,3.15L376.87,0l-9.91,2.42l-3.58,8.95l-9.84,-1.07l-9.41,13.6l-0.38,9.1l6.67,10.77l-5.82,-6.41l-3.94,-1.59l-6.69,-7.78l-7.44,11.32l-3.06,-6.31l-8.62,0.18l-8.62,3.21l-6.64,5.24l1.17,8.57l-4.08,1.98l-9.71,12.33l-2.44,6.64l7.57,5.76l-1.08,5.64l-10.27,7.16l-10.62,6.87l-0.39,5.34l6.32,5.43l12,3.37l-5.64,0.68l-7.36,3.97l4.87,7.66l3.25,3.75l6.84,-0.86l7.49,-0.47l5.95,0.85l7.52,6.69l-0.03,4.63l3.57,4.18l3.38,10.91l2.23,6.74l1.71,3.52l-3.13,8.51l2.34,2.19l2.79,-1.24l2.51,3l4.82,5.43l-5.72,-2.25l-2.6,0.12l-1.1,4.48l0.19,5.55l3.44,2.6l2.52,-1.13l1.53,-1.19l3.2,-2.87l-0.59,6.26l-1.11,3.26l-4.22,2.85l-2.77,8.66l1.87,2.53l-1.01,5.17l3.88,6.27l0.38,5.89l1.42,4.16l4.86,7.67l1.87,5.8l2.72,3.18l5.61,0.03l4.14,4.63l3.95,-0.34l1.44,-5.57l1.26,-4.85l-1.13,-4.71l4.57,-4.95l1.42,-4.17l0.04,-4.56l2.4,-4.12l4.03,-1.58l3.73,-1.68l1.94,-0.28l6.03,-4.89l3.9,-7.63l2.9,-2.87l3.09,-0.03l8.21,-2.62l7.62,-6.13l7.52,-7.03l-3.87,-0.45l-7.39,-0.35l3.26,-4.41l-0.96,-5.87l3.47,4.98l2.16,3.26l5,-1.62l-1.06,-6.96l-3.67,-5.48l-3.79,-2.29l1.44,-2.49l5.55,3.83l-0.04,-4.13l-3.51,-6.48l3.91,-0.03l3.95,-1.52l0.92,-3.51l-3.25,-4.14l6.23,-0.74L417.3,137l3,-1.02l-0.66,-9.63l-5.17,-6.3l4.61,-3.88l4.38,-0.51l-3.37,-8.33L420,92.07l2.26,-9.6l3.28,-11.51l-6.49,-0.79l8.96,-2.87l1.58,-3.89l11.43,-12.67L439.45,42.64zM202.94,154.49l-0.73,-2.88l-5,1.26l-3.34,-2.11l-3.32,4.8l3.09,6.28l-5.72,-1.17l-0.06,3.01l6.97,7.05l1.94,3.38l2.7,0.73l4.6,-3.41l0.5,-8.21l-4.24,-4.07L202.94,154.49zM210.94,168.15l3.01,-6.93l3.34,-1.85l4.19,-8.74l-5.36,-2.47l-5.84,-0.36l-2.78,2.77l-1.47,4.23l-0.04,4.82l1.75,8.19L210.94,168.15zM192.12,185.41l-5.06,-3.93l-4.71,-4.21l-0.87,-6.18l-1.76,-8.92l-3.14,-3.84l-2.79,-1.55l-2.47,1.42l1.99,9.59l-1.41,3.73l-2.29,-8.98l-2.56,-3.11l-3.17,4.81l-3.9,-4.76l-6.24,2.87l1.4,-4.46l-2.87,-1.87l-7.51,5.84l-1.95,3.71l-2.35,6.77l4.9,2.32l4.33,-0.12l-6.5,3.46l1.48,3.13l3.98,0.17l5.99,-0.67l5.42,1.96l-3.66,1.44l-3.95,-0.37l-4.33,1.41l-1.87,0.87l3.45,6.35l2.49,-0.88l3.83,2.15l1.52,3.65l4.99,-0.73l7.1,-1.16l5.26,-2.65l3.26,-0.48l4.82,2.12l5.07,1.22l0.94,-2.86l-1.79,-3.05l4.6,-0.64L192.12,185.41zM182.25,154.98l-2.13,-2.17l-3.76,0.4l-0.95,1.38l4.37,6.75L182.25,154.98zM195.4,139.8l4.62,-1.11l1.28,-8.25l-0.09,-5.95l-2.14,-5.56l-0.22,1.6l-3.94,-0.7l-4.22,4.09l-3.02,-0.37l0.18,8.92l4.6,-0.87l-0.06,6.47L195.4,139.8zM211.25,143.05l1.53,-4.14l-1.02,-3.46l-2.45,-3.92l-4.03,3.02l-1.49,4.92l3.4,2.79L211.25,143.05zM199.86,184.43l-1.96,3.54l-2.47,2.49l3.83,3.54l2.28,-0.85l3.78,2.36l1.74,-2.73l-1.71,-3.03l-0.84,-1.53l-1.68,-1.46L199.86,184.43zM264.36,205.36l0.32,-1.01l-0.03,-3.17l-2.19,-2.08l-2.57,1.05l-1.19,4.17l0.7,3.56l3.14,-0.36L264.36,205.36zM250.65,230.6l-2,-2.11l-2.06,0.5l-0.25,-3.06l-3.21,-2.04l-3.07,-2.27l-1.63,-1.75l-1.43,1.03l-0.52,-2.96l-2.03,-0.55l-0.96,6.13l-0.36,5.11l-2.44,3.14l3.8,-0.6l0.96,3.65l3.99,-3.23l2.78,-3.38l1.57,2.86l4.36,1.51L250.65,230.6zM228.09,145.15l5.76,-0.18l8.04,-1.61l3.59,1.28l4.18,-2.26l1.75,-2.84l-0.63,-4.52l-3,-4.23l-4.56,-0.8l-5.71,0.97l-4.46,2.44l-4.09,-0.94l-3.78,-0.5l-1.78,-2.7l-3.22,-2.61l0.64,-4.43l-2.42,-3.98l-5.52,0.03l-3.11,-3.99l-5.78,-0.8l-1.06,5.1l3.25,3.74l5.8,1.45l2.81,5.09l0.34,5.6l0.97,5.99l7.45,3.42L228.09,145.15zM251.91,243.37l1.1,-3.12l-0.71,-1.23l-1.15,-0.13l-1.08,1.8l-0.13,0.41l0.74,1.77L251.91,243.37zM284.83,184.6l-2.44,-3.35l-6.77,-3.35l-2.92,-5.55l-5.21,1.99l-0.36,-3.86l-3.86,-4.32l-6.22,-4.71l-2.65,3.71l-5.55,2.66l0.42,-6.06l-4.81,-10.05l-7.11,4.06l-2.59,7.7l-2.21,-5.92l2.06,-6.37l-7.24,2.65l-2.88,3.99l-2.15,8.42l0.89,9.05l3.98,0.04l-2.93,3.92l2.33,2.96l4.55,1.25l5.93,2.42l10.2,1.82l5.08,-1.04l1.5,-2.42l2.21,2.79l2.47,0.46l2.97,4.96l-1.8,1.98l5.68,2.63l4.29,3.68l1.08,2.55l0.77,3.24l-3.63,6.93l-0.98,3.44l0.94,2.42l-5.77,0.86l-5.27,0.12l-1.85,4.87l2.37,2.23l8.11,-1.03l-0.04,-1.89l4.08,3.15l4.18,3.28l-0.98,1.77l3.4,3.02l6.02,3.53l7.6,2.39l-0.46,-2.09l-2.92,-3.67l-3.96,-5.37l7.03,5l3.54,1.66l0.97,-4.44l-1.82,-6.3l-1.16,-1.73l-3.81,-3.03l-2.95,-3.91l0.35,-3.94l3.63,-0.87l4.41,6.6l3.45,2.85l4.92,-7.87l0.87,-4.93l-4.41,-0.47l-4.03,-6.7l-4.45,-1.64l-6.6,-4.97l5.15,-3.63L284.83,184.6zM239.75,238.48l0.61,1.63l1.98,0.14l3.28,-3.34l0.06,-1.19l-3.85,-0.06L239.75,238.48zM222.35,51.34l2.34,7.29l4.96,5.88l9.81,-1.09l6.31,1.97l-4.38,6.05l-2.21,-1.78l-7.66,-0.71l1.19,8.31l3.96,6.04l-0.8,5.2l-4.97,3.46l-2.27,5.47l4.55,2.65l3.82,8.55l-7.5,-5.7l-1.71,0.94l1.38,9.38l-5.18,2.83l0.35,5.85l5.3,0.63l4.17,1.44l8.24,-1.84l7.33,3.27l7.49,-7.19l-0.06,-3.02l-4.79,0.48l-0.39,-2.84l3.92,-3.83l1.33,-5.15l4.33,-3.83l2.66,-4.76l-2.32,-7.1l1.94,-2.65l-3.86,-1.89l8.49,-1.63l1.79,-3.15l5.78,-2.6l4.8,-13.47l4.57,-4.94l6.62,-11.12l-6.1,0.1l2.54,-4.3l6.78,-3.99l6.84,-8.9l0.12,-5.73l-5.13,-6.04l-6.02,-2.93l-7.49,-1.82l-6.07,-1.49l-6.07,-1.5l-8.1,3.98l-1.49,-2.53l-8.57,0.98l-5.03,2.57l-3.7,3.65l-2.13,11.74L239,24.52l-3.48,-1.14l-4.12,7.97l-5.5,3.35l-3.27,0.66l-4.17,3.84l0.61,6.65L222.35,51.34zM326.41,307.48l-1.96,0.72l0.87,-3.11l-2.8,-1.32l-1.29,1.05l-2.49,-1.18l0.98,-1.51l-1.88,-0.93l-1.83,1.47l1.86,-3.82l1.5,-2.8l0.54,-1.22l-1.3,-0.2l-2.43,1.55l-1.74,2.53l-2.9,6.92l-2.35,2.56l1.22,1.14l-1.75,1.47l0.43,1.23l5.44,0.13l3.01,-0.25l2.69,1.01l-1.98,1.93l1.67,0.14l3.25,-3.58l0.78,0.53l-0.61,3.37l1.84,0.77l1.27,-0.15l1.18,-3.61l-0.87,-2.59L326.41,307.48zM130.12,178.05l7.38,-4.18V170l3.48,-6.41l6.88,-6.69l3.52,-2.47l-3.01,-4.2l-2.72,-2.95l-7.16,-0.57l-4,-2.16l-9.48,1.63l2.74,6.23l-2.43,6.43l-1.94,6.87l-1.2,3.86l6.47,4.69L130.12,178.05zM145.21,136.27l3.92,1.95l12.67,-1.3l-5.82,4.77l0.36,3.43l4.26,-0.24l7.07,-4.58l9.5,-1.67l1.71,-5.22l-0.49,-5.57l-2.94,-0.5l-2.5,1.93l-1.1,-4.13l-0.95,-5.7l-2.9,-1.42l-2.57,4.41l4.01,11.05l-4.9,-0.85l-4.98,-6.79l-7.89,-4l-2.64,3.32L145.21,136.27zM128.95,308.23l-1.16,-2.34l-2.8,-1.77l-1.39,-2.05l-0.95,-1.5l-2.64,-0.46l-1.72,-0.67l-2.94,-0.96l-0.24,1.02l1.08,2.38l2.89,0.78l0.5,1.23l2.51,1.5l0.84,1.51l4.6,1.92L128.95,308.23zM212.14,108.88l0.33,-1.49l-1.97,-2.45l-5.65,-0.19l0.75,3.68l5.25,0.83L212.14,108.88zM296.75,316.34l-0.98,-1.98l-1.06,1.26l0.7,1.36l3.56,1.71l1.04,-0.26l1.38,-1.66l-2.6,0.11L296.75,316.34zM305.76,317.43l1.81,1.46l-3.47,2.62l-6.21,2.35l-2.78,1.58l-3.13,2.79l-2.13,-0.28l-0.11,-3.29l4.87,-3.26l-4.49,0.13l-3.12,0.48l0.48,1.29l-2.99,1.9l-2.88,1.34l-2.96,1.15l-1.48,2.28l-0.48,0.86l-0.03,2.01l0.93,1.99l1.16,0.09l-0.29,-1.37l0.84,0.84l-0.22,1.07l-1.89,0.61l-1.35,-0.07l-2.07,0.65l-1.22,0.19l-1.63,0.18l-2.34,1.07l4.12,-0.7l0.83,0.7l-3.93,1.11l-1.79,0.01l0.08,-0.45l-0.85,1.02l0.83,0.17l-0.61,2.62l-2.04,2.78l-0.21,-0.92l-0.62,-0.19l-0.92,-0.9l0.58,1.94l0.7,0.64l0.04,1.35l-0.9,1.38l-1.58,2.81l-0.26,-0.14l0.87,-2.4l-1.43,-1.36l-0.33,-2.97l-0.54,1.55l0.6,2.26l-1.85,-0.56l1.93,1.14l0.12,3.35l0.8,0.24l0.29,1.21l0.39,3.46l-1.78,2.53l-2.9,1.01l-1.84,1.98l-1.4,0.22l-1.42,1.23l-0.4,1.12l-3.08,2.16l-1.58,1.57L247.2,371l-0.43,2.31l0.5,2.25l0.94,2.75l1.25,2.25l0.02,1.37l1.33,3.65l-0.09,2.1l-0.12,1.21l-0.7,1.89l-0.84,0.39l-1.38,-0.37l-0.44,-1.35l-1.07,-0.71l-1.49,-2.68l-1.3,-2.4l-0.42,-1.23l0.58,-2.1l-0.79,-1.75l-2.19,-2.68l-1.09,-0.49l-2.83,1.46l-0.5,-0.16l-1.36,-1.5l-1.76,-0.8l-3.17,0.41l-2.49,-0.36l-2.14,0.22l-1.16,0.5l0.5,0.86l-0.05,1.3l0.6,0.63l-0.53,0.42l-1.04,-0.47l-1.05,0.61l-2.03,-0.1l-2.09,-1.69l-2.45,0.4l-2.04,-0.74l-1.74,0.23l-2.36,0.75l-2.55,2.37l-2.79,1.37l-1.53,1.51l-0.65,1.42l-0.03,2.16l0.14,1.5l0.53,1.06l-1.09,0.09l-1.99,-0.68l-2.19,-0.96l-0.79,-1.47l-0.62,-2.19l-1.65,-1.8l-0.97,-1.86l-1.41,-2.18l-1.98,-1.28l-2.29,0.06l-1.77,2.53l-2.33,-0.96l-1.45,-0.97l-0.7,-1.77l-0.93,-1.69l-1.67,-1.43l-1.43,-1.03l-1.02,-1.16l-4.86,0l-0.01,1.35l-2.22,0l-5.58,0.02l-6.4,-2.31l-4.23,-1.6l0.26,-0.65l-3.56,0.36l-3.19,0.25l-0.47,-1.7l-1.82,-1.92l-1.31,-0.4l-0.31,-0.96l-1.57,-0.17l-1,-0.91l-2.6,-0.33l-0.71,-0.55l-0.34,-1.87l-2.72,-3.45l-2.34,-4.85l0.1,-0.82l-1.24,-1.17l-2.17,-2.99l-0.39,-2.95l-1.49,-1.99l0.61,-3.05l-0.1,-3.2l-0.9,-2.9l1.1,-3.61l0.34,-3.54l0.34,-3.59l-0.51,-5.42l-0.89,-3.53l-0.82,-1.94l0.34,-0.82l4.05,1.42l1.49,3.91l0.69,-1.09l-0.45,-3.41l-0.95,-3.47l-0.38,-0.01l-5.43,-4.23l-2,-1.89l-5.08,-1.82l-1.56,-3.96l0.4,-2.79l-3.59,-1.96l-0.49,-3.76l-3.39,-3.45l-0.06,-2.48l-1.54,-1.83l-2.47,-1.57l-0.79,-4.36l-3.61,-4.13l-1.51,-4.94l-2.69,-0.34l-4.46,-0.13l-3.29,-1.54l-5.8,-5.64l-2.68,-1.05l-4.9,-1.99l-3.88,0.48l-5.51,-2.59l-3.33,-2.43l-3.11,1.21l0.58,3.93l-1.55,0.36l-3.24,1.16l-2.47,1.86l-3.11,1.16l-0.4,-3.24l1.26,-5.53l2.98,-1.77l-0.77,-1.46l-3.57,3.22l-1.91,3.77l-4.04,3.95l2.05,2.65l-2.65,3.85l-3.01,2.21l-2.81,1.59l-0.69,2.29l-4.38,2.63l-0.89,2.36l-3.28,2.13l-1.92,-0.38l-2.62,1.38l-2.85,1.67l-2.33,1.63l-4.81,1.38l-0.44,-0.81l3.07,-2.27l2.74,-1.51l2.99,-2.71l3.48,-0.56l1.38,-2.06l3.89,-3.05l0.63,-1.03l2.07,-1.83l0.48,-4l1.43,-3.17l-3.23,1.64l-0.9,-0.93l-1.52,1.95l-1.83,-2.73l-0.76,1.94l-1.05,-2.7l-2.8,2.17l-1.72,0l-0.24,-3.23l0.51,-2.02l-1.81,-1.98l-3.65,1.07l-2.37,-2.63l-1.92,-1.36l-0.01,-3.25l-2.16,-2.48l1.08,-3.41l2.29,-3.37l1,-3.15l2.27,-0.45l1.92,0.99l2.26,-3.01l2.04,0.54l2.14,-1.96l-0.52,-2.92l-1.57,-1.16l2.08,-2.52l-1.72,0.07l-2.98,1.43l-0.85,1.43l-2.21,-1.43l-3.97,0.73l-4.11,-1.56l-1.18,-2.65l-3.55,-3.91l3.94,-2.87l6.25,-3.41h2.31l-0.38,3.48l5.92,-0.27l-2.28,-4.34l-3.45,-2.72l-1.99,-3.64l-2.69,-3.17l-3.85,-2.38l1.57,-4.03l4.97,-0.25l3.54,-3.58l0.67,-3.92l2.86,-3.91l2.73,-0.95l5.31,-3.76l2.58,0.57l4.31,-4.61l4.24,1.83l2.03,3.87l1.25,-1.65l4.74,0.51l-0.17,1.95l4.29,1.43l2.86,-0.84l5.91,2.64l5.39,0.78l2.16,1.07l3.73,-1.34l4.25,2.46l3.05,1.13l5.23,1.94l4.41,3.8l2.92,0.72l2.46,-3.28l3.4,-2.5l4.17,0.98l4.2,-3.55l4.59,-2.05l1.93,3.39l2.09,-1.9l0.63,-3.91l1.94,0.89l4.74,7.32l3.73,-5.5l0.38,6.15l3.44,-1.31l1.06,-2.36l3.4,0.47l4.29,3.37l6.56,2.89l3.86,1.32l2.75,-0.5l3.78,3.9l-3.94,3.74l5.07,1.59l7.57,-0.87l2.39,-1.3l2.99,4.42l3.05,-3.72l-2.86,-3.19l1.81,-2.61l3.41,-0.35l2.24,-0.77l2.26,1.84l2.82,4.11l3.13,-0.6l4.95,3.35l4.35,-1.17l4.09,0.18l-0.32,-4.67l2.49,-1.33l4.34,2.58l-0.02,7l1.78,-5.88l2.26,0.2l1.27,-7.71l-3,-4.91l-3.27,-3.29l0.22,-9.34l3.32,-6.43l3.7,1.44l2.84,3.91l3.81,9.59l-2.49,4.01l5.21,1.63l-0.01,7.99l3.75,-6.09l3.35,5.02l-0.84,5.61l2.71,4.95l2.93,-5.3l2.04,-6.56l0.15,-8.71l3.98,0.62l4.14,1.19l3.76,3.95l0.17,3.87l-2.09,4.06l1.98,3.98l-0.36,3.54l-5.49,4.96l-3.9,1.08l-2.9,-2.11l-0.84,3.5l-2.7,5.73l-0.82,2.9l-3.25,4.39l-4.01,0.42l-2.21,2.68l-0.19,4.05l-3.26,0.77l-3.43,4.9l-3.04,6.6l-1.09,4.48l-0.15,6.41l4.12,0.9l1.26,4.99l1.31,3.95l3.92,-1.02l5.21,2.23l2.8,1.94l2.01,2.38l3.51,1.37l2.97,2.08l4.63,0.28l3.05,0.47l-0.46,4.19l0.87,4.76l2.03,5.17l4.17,4.28l2.16,-1.46l1.52,-4.68l-1.46,-7.4l-1.98,-2.53l4.49,-2.28l3.18,-3.46l1.55,-3.5l-0.23,-3.42l-1.9,-4.44l-3.41,-4.02l3.31,-5.75l-1.22,-5.12l-0.94,-9.18l1.95,-1.4l4.81,1.65l2.88,0.58l2.32,-1.58l2.61,2.04l3.45,3.44l0.85,2.27l5,0.44l-0.08,4.8l0.93,6.99l2.56,0.85l2.03,3.16l4.06,-2.97l2.68,-6.05l1.86,-2.61l2.18,4.98l3.65,6.89l3.1,6.26l-1.13,3.2l3.73,2.83l2.52,2.82l4.47,1.26l1.8,1.55l1.11,4.05l2.18,0.63l1.13,1.77l0.2,5.19l-2.04,1.71l-2.01,1.58l-4.62,1.59l-3.53,3.62l-4.74,0.71l-6,-0.92l-4.21,-0.03l-2.9,0.3l-2.35,3.11l-3.57,1.9l-4.04,5.57l-3.23,3.8l2.38,-0.67l4.5,-5.45l5.88,-3.53l4.19,-0.43l2.48,2.09l-2.65,2.83l0.89,4.46l0.92,3.07l3.64,2.01l4.63,-0.58l2.81,-4.56L305.76,317.43zM228.68,312.51l-0.9,2.17l1.59,0.52l1.97,1.55l2.49,-0.9l2.75,-0.36l0.59,1.14l0.86,0.16l0.59,-1.37l-1.18,-0.51l0.48,-1.56l-1.11,-1.21l0.49,-1.18l-3.15,-0.63l-0.94,-2.38l-0.67,-0.57l-1.93,-0.1l-2.61,-0.86l-0.63,0.55l-0.62,1.03l-1.59,0.66l-1.14,1.66l-2.86,1.37l-1.99,1.65l-1.9,1.73l-0.01,0.6l2.81,-0.85l1.72,1.4l2.16,-1.04l2.25,-1.33L228.68,312.51zM240.71,327.91l1.74,-1.7l1.04,0.39l0.5,2.24l0.14,1.57l1.81,-1.27l0.23,-1.07l-0.15,-1.84l1.34,-2.17l-0.36,-2.49l1.42,2.44l2.28,0.54l0.9,-1.3l-1.82,-3.04l-0.91,-1.26l-2.51,-0.78l-2.27,-0.41l-2.13,-0.04l-2.1,-0.5l-0.55,-0.9l-0.53,0.6l1.4,1.61l-2.47,0.36l-0.09,-0.02l-2.21,-0.42l-2.19,0.8l-1.91,0.36l-1.67,2.57l-1.1,1.42l0.38,0.46l2.06,-2.54l0.42,-0.01l-1.46,3.03l-0.63,2.71l-0.53,2.18l0.35,1.87l-0.08,0.94l0.02,0.98l0.76,1.98l0.26,0.25l0.95,-0.02l0.76,-0.41l0.57,-0.52l1.14,-1.84l0.08,-2.51l-0.93,-2.38l0.14,-1.64l0.73,-1.92l0.7,-1.32l1.12,-0.95l0.26,1.33l0.5,-1.95l0.62,-0.4l0.39,-1.52l2.38,0.8l2.08,1.55l0.23,1.79l-0.26,1.79l-1.54,1.56l0.14,0.97L240.71,327.91zM254.03,330.83l-0.05,-0.37v0l-2.44,0.47l-1.37,0.48l-0.75,0.59l-1.54,-0.38l-0.83,0.17l-1.23,1.06l-2.08,1.2l-1.54,-0.24l-0.96,1.45l1.73,0.77l1.4,0.19l2.03,-0.5l1.66,-1.03l1.44,-0.51l2.11,-1.09L254.03,330.83zM261.66,328.06l-0.17,-1.51l-0.29,-0.54l-0.03,-0.06l-0.6,-0.29l-0.89,0.54l-0.78,0.85l-1.24,-0.73l-2.37,0.53l-1.98,0.56l-0.85,0.46l-0.84,1.32l1.12,0.36l0.86,-0.2l0.13,-0.04l1.33,-0.44l2.2,0.14l2.3,0.32L261.66,328.06zM301.88,304.92l-2.87,-1.8l-3.69,-1.09l-0.97,0.37l2.61,2.04l3.63,1.34l1.36,-0.08L301.88,304.92zM139.07,126.88l5.21,-5.05l2.62,-0.59l2.16,-4.23l0.38,-9.77l-3.85,1.91l-4.3,-0.18l-5.76,8.19l-4.76,8.98l3.8,2.51L139.07,126.88zM166.31,106.56l0.93,-3.99l-3.95,-2.12l-4.09,1.39l-2.27,4.26l4.16,4.21L166.31,106.56zM200.13,101.41l2.28,3.12l4.15,-2.77l0.76,-4.97l-3.35,-4.92l-1.63,-0.96l-3.63,-0.58l0.22,5.9L200.13,101.41zM248.49,155.83l3.08,5.1l0.81,0.57l3.07,-1.27l3.02,0.2l2.98,0.28l-0.25,-2.64l-4.84,-5.38l-6.42,-1.08l-1.35,0.67L248.49,155.83zM208.96,82.89l5.13,-0.12l-2.22,4l-0.04,5.3l3.01,5.76l5.81,1.77l4.96,-0.99l5.18,-10.73l3.85,-4.45l-3.38,-4.97l-2.21,-10.65l-4.6,-3.19l-4.72,-3.68l-3.58,-9.56l-6.52,0.94l1.23,4.15l-2.87,1.25l-1.94,5.32l-1.94,7.46l1.78,7.26L208.96,82.89zM167.77,94.21l-3.65,-2.9l-1.5,-0.66l-2.88,4.28l-0.05,2l4.66,0.01L167.77,94.21zM183.06,93.13l-2.71,4.19l6.24,0.52l4.61,4.44l4.58,1.5l-1.09,-5.68l-2.14,-6.73l-7.58,-5.35l-5.5,-2.04l0.2,5.69L183.06,93.13z"/>
	</g>
</svg>